<?xml version="1.0" encoding="UTF-8" standalone="no"?>
<!-- Created with Inkscape (http://www.inkscape.org/) -->

<svg
   version="1.1"
   id="svg1"
   width="5162.7202"
   height="3778.6133"
   viewBox="0 0 5162.7202 3778.6133"
   xmlns="http://www.w3.org/2000/svg"
   xmlns:svg="http://www.w3.org/2000/svg">
  <defs
     id="defs1" />
  <g
     id="g1">
    <g
       id="group-R5">
      <path
         id="path2"
         d="m 32895.4,9353.1 c -1206.5,0 -2065.3,1350.6 -1138.2,2753.8 834.4,1263.2 2698.5,1654.4 2916.4,1310.9 777.2,-1224.4 42.1,-4064.7 -1778.2,-4064.7"
         style="fill:#8cd024;fill-opacity:1;fill-rule:evenodd;stroke:none"
         transform="matrix(0.13333333,0,0,-0.13333333,0,3778.6133)" />
      <path
         id="path3"
         d="m 36000.2,4404.9 c -2559,0 -2559,3251.9 0,3251.9 1386.6,0 2899.6,-1268.1 2701.8,-1710.7 C 38274.2,4991 36840.2,4404.9 36000.2,4404.9"
         style="fill:#8cd024;fill-opacity:1;fill-rule:evenodd;stroke:none"
         transform="matrix(0.13333333,0,0,-0.13333333,0,3778.6133)" />
      <path
         id="path4"
         d="m 25270.1,3151.9 c -1857.9,0 -3143.3,2434.6 -2739.4,2813.5 695.3,653.2 2187.2,757.2 3086.6,382 2009.9,-838.4 1423.2,-3195.5 -347.2,-3195.5"
         style="fill:#8cd024;fill-opacity:1;fill-rule:evenodd;stroke:none"
         transform="matrix(0.13333333,0,0,-0.13333333,0,3778.6133)" />
      <path
         id="path5"
         d="m 27863.3,9717.5 c -808,0 -1625.8,660.8 -1625.8,1924 0,1386.7 1268.1,2899.5 1710.7,2701.4 954.8,-427.7 1541.2,-1861.7 1541.2,-2701.4 -0.4,-1263.2 -818.2,-1924 -1626.1,-1924"
         style="fill:#8cd024;fill-opacity:1;fill-rule:evenodd;stroke:none"
         transform="matrix(0.13333333,0,0,-0.13333333,0,3778.6133)" />
      <path
         id="path6"
         d="m 32167.5,9571.3 c -163.8,0 -264.4,183.4 -173,321.6 l 1459.9,2209.7 c 150.5,227.5 496.8,-0.6 346,-228.7 L 32340.8,9664.2 c -40,-60.3 -106.2,-92.9 -173.3,-92.9"
         style="fill:#6aae2f;fill-opacity:1;fill-rule:evenodd;stroke:none"
         transform="matrix(0.13333333,0,0,-0.13333333,0,3778.6133)" />
      <path
         id="path7"
         d="m 33219.2,11163.5 c -96.3,0 -182.8,67.7 -202.8,165.9 l -209.3,1024.7 c -54.8,267.5 351.5,350.9 406.3,83.1 l 168.1,-821.5 821.5,168 c 266.8,54.8 350.5,-351.8 82.8,-406.6 l -1066.6,-213.6"
         style="fill:#6aae2f;fill-opacity:1;fill-rule:evenodd;stroke:none"
         transform="matrix(0.13333333,0,0,-0.13333333,0,3778.6133)" />
      <path
         id="path8"
         d="m 32695.1,10370 c -96.7,0 -182.9,67.7 -203.2,165.9 l -209.3,1024.7 c -54.5,267.5 351.8,350.6 406.6,82.8 l 167.8,-821.2 821.5,167.7 c 267.1,54.5 350.9,-351.8 83.1,-406.6 L 32695.1,10370"
         style="fill:#6aae2f;fill-opacity:1;fill-rule:evenodd;stroke:none"
         transform="matrix(0.13333333,0,0,-0.13333333,0,3778.6133)" />
      <path
         id="path9"
         d="m 29578.6,266.902 c -114.8,0 -208.7,93.598 -207.4,209.297 16.6,1827.701 306.2,6405.601 2631.9,9429.001 165.9,215.8 495,-37.2 329.1,-253 -2249.1,-2924 -2529.8,-7393.6 -2546.1,-9179.7 -1.3,-113.898 -93.9,-205.598 -207.5,-205.598"
         style="fill:#6aae2f;fill-opacity:1;fill-rule:evenodd;stroke:none"
         transform="matrix(0.13333333,0,0,-0.13333333,0,3778.6133)" />
      <path
         id="path10"
         d="m 30183.7,5195.3 c -191.7,0 -2470,1226.9 -2527.9,4726.3 -4.6,272.4 410.3,281.3 414.9,6.7 55.7,-3288.2 2180.1,-4327.9 2201.4,-4337.8 199.4,-93.8 131.4,-395.2 -88.4,-395.2"
         style="fill:#6aae2f;fill-opacity:1;fill-rule:evenodd;stroke:none"
         transform="matrix(0.13333333,0,0,-0.13333333,0,3778.6133)" />
      <path
         id="path11"
         d="m 29853.8,3570.8 c -170.2,0 -273,203.1 -159.5,339.8 71.8,86.5 1787.7,2117.9 4595.5,2326.9 272.7,21.3 303.7,-393.3 31,-413.6 -2627.6,-195.8 -4291,-2158.6 -4307.6,-2178.3 -40.9,-49.3 -100,-74.8 -159.4,-74.8"
         style="fill:#6aae2f;fill-opacity:1;fill-rule:evenodd;stroke:none"
         transform="matrix(0.13333333,0,0,-0.13333333,0,3778.6133)" />
      <path
         id="path12"
         d="m 36932.2,5823.2 h -2648 c -273.3,0 -273,414.9 0,414.9 h 2648 c 273,0 273,-414.9 0,-414.9"
         style="fill:#6aae2f;fill-opacity:1;fill-rule:evenodd;stroke:none"
         transform="matrix(0.13333333,0,0,-0.13333333,0,3778.6133)" />
      <path
         id="path13"
         d="m 36932.2,5083.6 c -52.9,0 -106.2,20.3 -146.8,60.9 l -739.7,739.7 c -80.9,80.9 -80.9,212.4 0,293.3 l 739.7,739.4 c 193.3,193.2 486.6,-100.4 293.3,-293.4 l -592.8,-592.8 592.8,-592.8 c 131.1,-130.8 36.6,-354.3 -146.5,-354.3"
         style="fill:#6aae2f;fill-opacity:1;fill-rule:evenodd;stroke:none"
         transform="matrix(0.13333333,0,0,-0.13333333,0,3778.6133)" />
      <path
         id="path14"
         d="m 35980.8,5083.6 c -52.9,0 -106.2,20.3 -146.8,60.9 l -739.4,739.7 c -81.2,80.9 -81.2,212.4 0,293.3 l 739.4,739.4 c 193.3,193.2 486.6,-100.4 293.6,-293.4 l -592.8,-592.8 592.8,-592.8 c 130.8,-130.8 36.6,-354.3 -146.8,-354.3"
         style="fill:#6aae2f;fill-opacity:1;fill-rule:evenodd;stroke:none"
         transform="matrix(0.13333333,0,0,-0.13333333,0,3778.6133)" />
      <path
         id="path15"
         d="m 29596.8,971.398 c -77,0 -150.8,43.102 -186.6,116.702 -12.3,25.2 -1243.1,2513.5 -2882.5,2896.1 -265.9,62.1 -171.1,465.3 94.5,403.8 1831.7,-427.5 3107.5,-3008.4 3160.8,-3118 67.4,-138.8 -35.7,-298.602 -186.2,-298.602"
         style="fill:#6aae2f;fill-opacity:1;fill-rule:evenodd;stroke:none"
         transform="matrix(0.13333333,0,0,-0.13333333,0,3778.6133)" />
      <path
         id="path16"
         d="m 26574.8,3978.3 c -102.2,0 -2242,918.5 -2523.3,1036.1 -251.2,104.9 -91.1,487.5 159.7,382.9 l 2444,-1019.8 c 208.6,-87.4 144.3,-399.2 -80.4,-399.2"
         style="fill:#6aae2f;fill-opacity:1;fill-rule:evenodd;stroke:none"
         transform="matrix(0.13333333,0,0,-0.13333333,0,3778.6133)" />
      <path
         id="path17"
         d="m 23846.5,4316 c -225.3,0 -288.7,313 -79.1,399.5 l 775.3,318.5 -318.5,775.4 c -103.5,251.5 280.1,409.7 383.8,157.9 l 397.4,-967.4 c 43.7,-105.9 -7.1,-226.9 -113,-270.6 -145.9,-60 -958.2,-413.3 -1045.9,-413.3"
         style="fill:#6aae2f;fill-opacity:1;fill-rule:evenodd;stroke:none"
         transform="matrix(0.13333333,0,0,-0.13333333,0,3778.6133)" />
      <path
         id="path18"
         d="m 24724.3,3949.4 c -225.3,0 -288.7,313.3 -79.1,399.5 l 775.4,318.9 -318.6,775.3 c -103.4,251.5 280.4,409.4 383.8,157.6 l 397.7,-967.1 c 43.4,-105.9 -7.1,-227.1 -113.3,-270.5 -145.9,-60.4 -957.8,-413.7 -1045.9,-413.7"
         style="fill:#6aae2f;fill-opacity:1;fill-rule:evenodd;stroke:none"
         transform="matrix(0.13333333,0,0,-0.13333333,0,3778.6133)" />
      <path
         id="path19"
         d="m 27863.3,9717.5 c -114.5,0 -207.5,93.3 -207.5,207.4 v 2648.3 c 0,273.1 414.9,273.1 414.9,0 V 9924.9 c 0,-114.1 -92.9,-207.4 -207.4,-207.4"
         style="fill:#6aae2f;fill-opacity:1;fill-rule:evenodd;stroke:none"
         transform="matrix(0.13333333,0,0,-0.13333333,0,3778.6133)" />
      <path
         id="path20"
         d="m 27863.3,11626.1 c -53,0 -106.2,20.4 -146.6,61 l -739.6,739.3 c -193,193.3 100.3,486.6 293.3,293.4 l 592.9,-592.9 592.8,592.9 c 193.3,193.2 486.6,-100.4 293.6,-293.4 l -739.6,-739.3 c -40.7,-40.6 -93.9,-61 -146.8,-61"
         style="fill:#6aae2f;fill-opacity:1;fill-rule:evenodd;stroke:none"
         transform="matrix(0.13333333,0,0,-0.13333333,0,3778.6133)" />
      <path
         id="path21"
         d="m 27863.3,10675.1 c -53,0 -106.2,20.3 -146.6,60.6 l -739.6,739.6 c -193,193 100.3,486.3 293.3,293.4 l 592.9,-592.9 592.8,592.9 c 193.3,193.2 486.6,-100.4 293.6,-293.4 l -739.6,-739.6 c -40.7,-40.3 -93.9,-60.6 -146.8,-60.6"
         style="fill:#6aae2f;fill-opacity:1;fill-rule:evenodd;stroke:none"
         transform="matrix(0.13333333,0,0,-0.13333333,0,3778.6133)" />
      <path
         id="path22"
         d="m 10439.3,9353.1 c -1206.56,0 -2065.47,1350.6 -1138.23,2753.8 834.43,1263.2 2698.33,1654.4 2916.43,1310.9 777.1,-1224.4 42.1,-4064.7 -1778.2,-4064.7"
         style="fill:#8cd024;fill-opacity:1;fill-rule:evenodd;stroke:none"
         transform="matrix(0.13333333,0,0,-0.13333333,0,3778.6133)" />
      <path
         id="path23"
         d="m 13544.2,4404.9 c -2559.2,0 -2559.2,3251.9 0,3251.9 1386.6,0 2899.5,-1268.1 2701.6,-1710.7 C 15818.1,4991 14384,4404.9 13544.2,4404.9"
         style="fill:#8cd024;fill-opacity:1;fill-rule:evenodd;stroke:none"
         transform="matrix(0.13333333,0,0,-0.13333333,0,3778.6133)" />
      <path
         id="path24"
         d="M 2813.94,3151.9 C 956.074,3151.9 -329.293,5586.5 74.3906,5965.4 769.703,6618.6 2261.9,6722.6 3160.98,6347.4 5171.05,5509 4584.54,3151.9 2813.94,3151.9"
         style="fill:#8cd024;fill-opacity:1;fill-rule:evenodd;stroke:none"
         transform="matrix(0.13333333,0,0,-0.13333333,0,3778.6133)" />
      <path
         id="path25"
         d="m 5407.13,9717.5 c -807.81,0 -1625.79,660.8 -1625.79,1924 0,1386.7 1268.13,2899.5 1710.59,2701.4 954.78,-427.7 1541.14,-1861.7 1541.14,-2701.4 -0.15,-1263.2 -817.97,-1924 -1625.94,-1924"
         style="fill:#8cd024;fill-opacity:1;fill-rule:evenodd;stroke:none"
         transform="matrix(0.13333333,0,0,-0.13333333,0,3778.6133)" />
      <path
         id="path26"
         d="m 9711.37,9571.3 c -163.9,0 -264.4,183.4 -172.99,321.6 l 1459.92,2209.7 c 150.3,227.5 496.8,-0.6 345.9,-228.7 L 9884.51,9664.2 c -39.87,-60.3 -106.04,-92.9 -173.14,-92.9"
         style="fill:#6aae2f;fill-opacity:1;fill-rule:evenodd;stroke:none"
         transform="matrix(0.13333333,0,0,-0.13333333,0,3778.6133)" />
      <path
         id="path27"
         d="m 10763.1,11163.5 c -96.5,0 -183,67.7 -203,165.9 l -209.3,1024.7 c -54.6,267.5 351.7,350.9 406.6,83.1 l 167.8,-821.5 821.5,168 c 267.1,54.8 350.9,-351.8 82.8,-406.6 l -1066.4,-213.6"
         style="fill:#6aae2f;fill-opacity:1;fill-rule:evenodd;stroke:none"
         transform="matrix(0.13333333,0,0,-0.13333333,0,3778.6133)" />
      <path
         id="path28"
         d="m 10238.9,10370 c -96.6,0 -183,67.7 -203,165.9 l -209.26,1024.7 c -54.79,267.5 351.66,350.6 406.46,82.8 l 167.7,-821.2 821.5,167.7 c 267.1,54.5 351.1,-351.8 83.1,-406.6 L 10238.9,10370"
         style="fill:#6aae2f;fill-opacity:1;fill-rule:evenodd;stroke:none"
         transform="matrix(0.13333333,0,0,-0.13333333,0,3778.6133)" />
      <path
         id="path29"
         d="m 7122.49,266.902 c -114.81,0 -208.69,93.598 -207.61,209.297 16.77,1827.701 306.41,6405.601 2631.97,9429.001 165.9,215.8 494.95,-37.2 329.19,-253 C 7626.97,6728.2 7346.25,2258.6 7329.94,472.5 7328.71,358.602 7236.22,266.902 7122.49,266.902"
         style="fill:#6aae2f;fill-opacity:1;fill-rule:evenodd;stroke:none"
         transform="matrix(0.13333333,0,0,-0.13333333,0,3778.6133)" />
      <path
         id="path30"
         d="m 7727.46,5195.3 c -191.61,0 -2469.76,1226.9 -2527.79,4726.3 -4.46,272.4 410.14,281.3 414.91,6.7 55.56,-3288.2 2179.98,-4327.9 2201.53,-4337.8 199.3,-93.8 131.42,-395.2 -88.65,-395.2"
         style="fill:#6aae2f;fill-opacity:1;fill-rule:evenodd;stroke:none"
         transform="matrix(0.13333333,0,0,-0.13333333,0,3778.6133)" />
      <path
         id="path31"
         d="m 7397.66,3570.8 c -170.37,0 -273.02,203.1 -159.6,339.8 71.72,86.5 1787.69,2117.9 4595.54,2326.9 272.6,21.3 303.7,-393.3 31.1,-413.6 C 9237.05,5628.1 7573.56,3665.3 7557.09,3645.6 7516,3596.3 7456.91,3570.8 7397.66,3570.8"
         style="fill:#6aae2f;fill-opacity:1;fill-rule:evenodd;stroke:none"
         transform="matrix(0.13333333,0,0,-0.13333333,0,3778.6133)" />
      <path
         id="path32"
         d="m 14475.9,5823.2 h -2648 c -273.1,0 -273,414.9 0,414.9 h 2648 c 273.2,0 273.2,-414.9 0,-414.9"
         style="fill:#6aae2f;fill-opacity:1;fill-rule:evenodd;stroke:none"
         transform="matrix(0.13333333,0,0,-0.13333333,0,3778.6133)" />
      <path
         id="path33"
         d="m 14475.9,5083.6 c -52.9,0 -106.2,20.3 -146.8,60.9 l -739.5,739.7 c -81.1,80.9 -81.1,212.4 0,293.3 l 739.5,739.4 c 193.4,193.2 486.6,-100.4 293.5,-293.4 l -592.8,-592.8 592.8,-592.8 c 131.1,-130.8 36.5,-354.3 -146.7,-354.3"
         style="fill:#6aae2f;fill-opacity:1;fill-rule:evenodd;stroke:none"
         transform="matrix(0.13333333,0,0,-0.13333333,0,3778.6133)" />
      <path
         id="path34"
         d="m 13524.7,5083.6 c -53.1,0 -106.2,20.3 -146.8,60.9 l -739.5,739.7 c -81.1,80.9 -81.1,212.4 0,293.3 l 739.5,739.4 c 193.2,193.2 486.6,-100.4 293.4,-293.4 l -592.8,-592.8 592.8,-592.8 c 131,-130.8 36.7,-354.3 -146.6,-354.3"
         style="fill:#6aae2f;fill-opacity:1;fill-rule:evenodd;stroke:none"
         transform="matrix(0.13333333,0,0,-0.13333333,0,3778.6133)" />
      <path
         id="path35"
         d="m 7140.49,971.398 c -76.79,0 -150.67,43.102 -186.53,116.702 -12.3,25.2 -1243.03,2513.5 -2882.21,2896.1 -266.24,62.1 -171.44,465.3 94.19,403.8 1831.85,-427.5 3107.52,-3008.4 3160.92,-3118 67.56,-138.8 -35.7,-298.602 -186.37,-298.602"
         style="fill:#6aae2f;fill-opacity:1;fill-rule:evenodd;stroke:none"
         transform="matrix(0.13333333,0,0,-0.13333333,0,3778.6133)" />
      <path
         id="path36"
         d="m 4118.69,3978.3 c -102.19,0 -2242.15,918.5 -2523.48,1036.1 -251.16,104.9 -91.1,487.5 159.9,382.9 L 4198.87,4377.5 c 208.84,-87.4 144.36,-399.2 -80.18,-399.2"
         style="fill:#6aae2f;fill-opacity:1;fill-rule:evenodd;stroke:none"
         transform="matrix(0.13333333,0,0,-0.13333333,0,3778.6133)" />
      <path
         id="path37"
         d="m 1390.22,4316 c -225.15,0 -288.56,313 -78.95,399.5 l 775.34,318.5 -318.72,775.4 c -103.42,251.5 280.25,409.7 383.82,157.9 l 397.52,-967.4 c 43.56,-105.9 -7.08,-226.9 -113.11,-270.6 -145.9,-60 -957.87,-413.3 -1045.9,-413.3"
         style="fill:#6aae2f;fill-opacity:1;fill-rule:evenodd;stroke:none"
         transform="matrix(0.13333333,0,0,-0.13333333,0,3778.6133)" />
      <path
         id="path38"
         d="m 2268.21,3949.4 c -225.3,0 -288.71,313.3 -78.95,399.5 l 775.34,318.9 -318.87,775.3 c -103.27,251.5 280.4,409.4 383.82,157.6 l 397.67,-967.1 c 43.56,-105.9 -7.08,-227.1 -113.11,-270.5 -145.9,-60.4 -958.02,-413.7 -1045.9,-413.7"
         style="fill:#6aae2f;fill-opacity:1;fill-rule:evenodd;stroke:none"
         transform="matrix(0.13333333,0,0,-0.13333333,0,3778.6133)" />
      <path
         id="path39"
         d="m 5407.13,9717.5 c -114.5,0 -207.46,93.3 -207.46,207.4 v 2648.3 c 0,273.1 414.91,273.1 414.91,0 V 9924.9 c 0,-114.1 -92.95,-207.4 -207.45,-207.4"
         style="fill:#6aae2f;fill-opacity:1;fill-rule:evenodd;stroke:none"
         transform="matrix(0.13333333,0,0,-0.13333333,0,3778.6133)" />
      <path
         id="path40"
         d="m 5407.13,11626.1 c -53.09,0 -106.19,20.4 -146.67,61 l -739.32,739.3 c -193.3,193.3 100.18,486.6 293.33,293.4 l 592.66,-592.9 592.97,592.9 c 193.3,193.2 486.48,-100.4 293.33,-293.4 l -739.48,-739.3 c -40.63,-40.6 -93.73,-61 -146.82,-61"
         style="fill:#6aae2f;fill-opacity:1;fill-rule:evenodd;stroke:none"
         transform="matrix(0.13333333,0,0,-0.13333333,0,3778.6133)" />
      <path
         id="path41"
         d="m 5407.13,10675.1 c -53.09,0 -106.19,20.3 -146.67,60.6 l -739.32,739.6 c -193.3,193 100.18,486.3 293.33,293.4 l 592.66,-592.9 592.97,592.9 c 193.3,193.2 486.48,-100.4 293.33,-293.4 l -739.48,-739.6 c -40.63,-40.3 -93.73,-60.6 -146.82,-60.6"
         style="fill:#6aae2f;fill-opacity:1;fill-rule:evenodd;stroke:none"
         transform="matrix(0.13333333,0,0,-0.13333333,0,3778.6133)" />
      <path
         id="path42"
         d="m 26093.4,27263.8 c -523.2,0 -627.9,751.8 -120.3,891.5 464.7,128.1 1395.2,417.1 1462.3,-222.1 61,-578.1 -609.1,-482.6 -1221.3,-652.8 -40.6,-11.2 -80.7,-16.6 -120.7,-16.6 z m 4367.7,-621.4 c -208.1,0 -557.1,271.1 -980.1,443.6 -550.9,225 -208,1064.6 342.9,840.3 453.7,-184.8 1359.3,-520.5 1024.4,-1067.1 -85.6,-140 -234.9,-216.8 -387.2,-216.8 z m -7322.8,-1376.1 c -365.1,0 -591,428.3 -360.2,729.7 298,389.2 858.5,1175.1 1298,708.8 397.4,-422.1 -188.7,-752.4 -577.4,-1260.7 -89,-116.7 -224.4,-177.8 -360.4,-177.8 z m 9614.6,-1357.7 c -432.4,0 -439.8,449.1 -788.5,1035.6 -305.7,514.1 474.6,977.3 779.9,464.2 249,-418 772.6,-1235.5 174.8,-1468.2 -54.7,-21.1 -110.8,-31.6 -166.2,-31.6 z M 21991.7,21891 c -642,0 -453.4,949.3 -373.6,1431.1 97.5,590.4 992.6,441.1 895.6,-148.2 -103.7,-630.3 57.9,-1282.9 -522,-1282.9 z m 11141.4,-1564.5 c -592.9,0 -454,762.9 -454,1361.5 0,597.5 907.6,597.5 907.6,0 0,-599.1 139.2,-1361.5 -453.6,-1361.5 z m 0,-3630.6 c -592.9,0 -454,762.9 -454,1361.5 0,597.3 907.6,597.3 907.6,0 0,-599.1 139.2,-1361.5 -453.6,-1361.5 v 0"
         style="fill:#8bb7e5;fill-opacity:1;fill-rule:evenodd;stroke:none"
         transform="matrix(0.13333333,0,0,-0.13333333,0,3778.6133)" />
      <path
         id="path43"
         d="m 25815.8,24483.8 c -360.7,0 -1124.1,735.4 713.5,1242.5 575.5,158.9 817.5,-717 240.4,-875.3 -528.8,-145.2 -726.5,-367.2 -953.9,-367.2 z m 4186,-531 c -310.5,0 -398.6,293.2 -946.4,607.6 -478.7,274.4 -213.3,1626.9 1265,169.6 289.6,-285.5 83.7,-777.2 -318.6,-777.2 z m -5918,-2473.7 c -691.9,0 -424.8,1078.5 -320.1,1468.3 155.1,578.5 1031.7,340.7 876.9,-235.3 -161,-597.5 26.2,-1233 -556.8,-1233 z m 6957.2,-874.7 c -592.9,0 -454,762.9 -454,1361.6 0,597.4 908,597.4 908,0 0,-599.1 138.8,-1361.6 -454,-1361.6 z m 0,-3630.4 c -592.9,0 -454,762.7 -454,1361.5 0,597.3 908,597.3 908,0 0,-599.4 138.8,-1361.5 -454,-1361.5 v 0"
         style="fill:#8bb7e5;fill-opacity:1;fill-rule:evenodd;stroke:none"
         transform="matrix(0.13333333,0,0,-0.13333333,0,3778.6133)" />
      <path
         id="path44"
         d="m 12633.1,27263.8 -937.8,170.2 c -594.5,61.9 -500,963.9 93.7,902.6 485.1,-50 1452.7,-120.3 1281.5,-739.6 -55.7,-201.2 -238.5,-333.2 -437.4,-333.2 z m -4367.3,-621.4 c -454.31,0 -628.22,600.9 -238.08,840.4 417.22,256.2 1223.95,789 1466.03,194.8 218.85,-537.1 -446.15,-632.5 -991.41,-968.2 -73.57,-45.3 -155.59,-67 -236.54,-67 z M 15588,25266.5 c -339.5,0 -458.5,362.7 -918.9,796.7 -434.8,409.7 188.6,1070.7 623.1,660.2 357.5,-337.8 1080.8,-973.4 572.2,-1363.3 -82.8,-63.3 -179.8,-93.6 -276.4,-93.6 z M 5973.78,23908.6 c -314.1,0 -538.95,321.5 -422.14,619.6 178.06,455.6 501.25,1366.5 1052.97,1038.4 498.33,-296.4 25.09,-774.4 -208.06,-1369.4 -70.03,-179 -241.47,-288.6 -422.77,-288.6 z M 16734.5,21891 c -579.4,0 -417.6,652.6 -521.5,1283.2 -97,589.5 798.2,737.4 895.8,147.6 79.7,-482.9 267.3,-1430.8 -374.3,-1430.8 z m -11141,-1564.5 c -592.82,0 -453.85,762.9 -453.85,1361.5 0,597.5 907.7,597.5 907.7,0 0,-599.2 138.82,-1361.5 -453.85,-1361.5 z m 0,-3630.6 c -592.82,0 -453.85,762.9 -453.85,1361.5 0,597.5 907.7,597.5 907.7,0 0,-599.3 138.82,-1361.5 -453.85,-1361.5 v 0"
         style="fill:#8bb7e5;fill-opacity:1;fill-rule:evenodd;stroke:none"
         transform="matrix(0.13333333,0,0,-0.13333333,0,3778.6133)" />
      <path
         id="path45"
         d="m 12910.3,24483.8 c -226.8,0 -424.1,222.4 -953.7,367.5 -535.9,146.6 -606.5,1525.4 1183.2,478.3 398.7,-233.3 229.9,-845.8 -229.5,-845.8 z m -4185.42,-531 c -296.41,0 -1080.22,492.5 495.4,1395.1 518.94,297.3 970.02,-490.5 451.07,-787.5 -549.72,-314.6 -635.29,-607.6 -946.47,-607.6 z m 5917.42,-2473.7 c -581.8,0 -395.7,635.2 -556.4,1233.1 -143.9,535.9 1009.6,1295.2 1010.1,-779.3 0.1,-250.7 -203.2,-453.8 -453.7,-453.8 z m -6956.39,-875 c -588.97,0 -458.16,761.7 -453.85,1367.9 4.16,591.7 911.85,595.4 907.23,-12.9 -4.46,-590.7 143.28,-1355 -453.38,-1355 z m 0,-3630.6 c -592.66,0 -453.85,762.9 -453.85,1361.5 0,597.5 907.7,597.5 907.7,0 0,-599.2 138.81,-1361.5 -453.85,-1361.5 v 0"
         style="fill:#8bb7e5;fill-opacity:1;fill-rule:evenodd;stroke:none"
         transform="matrix(0.13333333,0,0,-0.13333333,0,3778.6133)" />
      <path
         id="path46"
         d="m 20913.2,21891 h -3100.5 c -606.3,0 -453.8,815.4 -453.8,1501.6 0,828 673.5,1501.5 1501.4,1501.5 h 1005.1 c 828,0 1501.5,-673.5 1501.5,-1501.5 0,-687.1 152.7,-1501.6 -453.7,-1501.6"
         style="fill:#614b48;fill-opacity:1;fill-rule:evenodd;stroke:none"
         transform="matrix(0.13333333,0,0,-0.13333333,0,3778.6133)" />
      <path
         id="path47"
         d="m 20504.4,2657.9 h -2282.9 c -250.4,0 -453.8,203.4 -453.8,453.6 v 9471.9 c 0,250.5 203.4,454 453.8,454 h 2282.9 c 250.6,0 454,-203.8 454,-454 V 3111.5 c 0.3,-250.5 -203.1,-453.6 -454,-453.6"
         style="fill:#614b48;fill-opacity:1;fill-rule:evenodd;stroke:none"
         transform="matrix(0.13333333,0,0,-0.13333333,0,3778.6133)" />
      <path
         id="path48"
         d="m 17767.7,11524.6 v 1058.8 c 0,250.5 203.4,454 453.8,454 h 2282.9 c 250.6,0 454,-203.8 454,-454 v -1058.8 h -3190.7"
         style="fill:#594543;fill-opacity:1;fill-rule:evenodd;stroke:none"
         transform="matrix(0.13333333,0,0,-0.13333333,0,3778.6133)" />
      <path
         id="path49"
         d="m 21542.6,14388.6 h -4359.1 c -250.6,0 -454,203.3 -454,453.9 v 5406.9 c 0,250.5 203.4,453.7 454,453.7 h 4359.1 c 250.6,0 454,-203.2 454,-453.7 v -5406.9 c 0,-250.6 -203.4,-453.9 -454,-453.9"
         style="fill:#614b48;fill-opacity:1;fill-rule:evenodd;stroke:none"
         transform="matrix(0.13333333,0,0,-0.13333333,0,3778.6133)" />
      <path
         id="path50"
         d="m 16729.5,19190.6 v 1058.8 c 0,250.5 203.4,453.7 454,453.7 h 4359.1 c 250.6,0 454,-203.2 454,-453.7 v -1058.8 h -5267.1"
         style="fill:#594543;fill-opacity:1;fill-rule:evenodd;stroke:none"
         transform="matrix(0.13333333,0,0,-0.13333333,0,3778.6133)" />
      <path
         id="path51"
         d="m 18422.5,16094.9 c -250.6,0 -453.9,203.5 -453.9,453.9 v 1999.7 c 0,597.4 907.7,597.4 907.7,0 v -1999.7 c 0,-250.6 -203,-453.9 -453.8,-453.9"
         style="fill:#8c7c7a;fill-opacity:1;fill-rule:evenodd;stroke:none"
         transform="matrix(0.13333333,0,0,-0.13333333,0,3778.6133)" />
      <path
         id="path52"
         d="m 21261,12129.7 h -3795.8 c -177.2,0 -338.5,103.4 -412.6,264.4 l -1038,2258.9 c -137.3,298.9 83.6,643.3 412.3,643.3 h 5872 c 328.4,0 550,-344.7 412.8,-643.3 l -1038.2,-2259.2 c -74.2,-161 -234.9,-264.1 -412.5,-264.1"
         style="fill:#d5d3d9;fill-opacity:1;fill-rule:evenodd;stroke:none"
         transform="matrix(0.13333333,0,0,-0.13333333,0,3778.6133)" />
      <path
         id="path53"
         d="M 22770.4,19795.7 H 15956 c -250.6,0 -453.9,203.5 -453.9,453.9 v 2095.3 c 0,250.4 203.3,453.7 453.9,453.7 h 6814.1 c 250.6,0 454,-203.3 454,-453.7 v -2095.3 c 0.3,-250.9 -203.1,-453.9 -453.7,-453.9"
         style="fill:#d5d3d9;fill-opacity:1;fill-rule:evenodd;stroke:none"
         transform="matrix(0.13333333,0,0,-0.13333333,0,3778.6133)" />
      <path
         id="path54"
         d="m 22021,0 h -5315.7 c -250.4,0 -453.9,203.5 -453.9,453.699 V 3111.5 c 0,250.6 203.5,453.7 453.9,453.7 l 5315.7,0.4 c 250.5,0 454,-203.8 454,-454.1 V 454 C 22475,203.801 22271.5,0 22021,0"
         style="fill:#d5d3d9;fill-opacity:1;fill-rule:evenodd;stroke:none"
         transform="matrix(0.13333333,0,0,-0.13333333,0,3778.6133)" />
      <path
         id="path55"
         d="M 38272.7,0 H 453.594 c -597.438,0 -597.438,907.703 0,907.703 H 38272.7 c 596.9,0 596.9,-907.703 0,-907.703"
         style="fill:#a0d731;fill-opacity:1;fill-rule:evenodd;stroke:none"
         transform="matrix(0.13333333,0,0,-0.13333333,0,3778.6133)" />
    </g>
  </g>
</svg>
